Katibeh -  Latin - Kerning, With Production Names.ufo
<glyph name="five" format="1">
  <advance width="396"/>
  <unicode hex="0035"/>
  <outline>
    <contour>
      <point x="86" y="393" type="line"/>
      <point x="319" y="393" type="line"/>
      <point x="334" y="407"/>
      <point x="343" y="435"/>
      <point x="343" y="467" type="curve"/>
      <point x="73" y="467" type="line"/>
      <point x="61" y="256" type="line"/>
      <point x="73" y="233" type="line"/>
      <point x="99" y="239"/>
      <point x="118" y="241"/>
      <point x="134" y="241" type="curve" smooth="yes"/>
      <point x="215" y="241"/>
      <point x="264" y="198"/>
      <point x="264" y="125" type="curve" smooth="yes"/>
      <point x="264" y="61"/>
      <point x="235" y="19"/>
      <point x="191" y="19" type="curve" smooth="yes"/>
      <point x="154" y="19"/>
      <point x="121" y="51"/>
      <point x="121" y="95" type="curve" smooth="yes"/>
      <point x="121" y="128"/>
      <point x="133" y="156"/>
      <point x="155" y="170" type="curve"/>
      <point x="153" y="178" type="line"/>
      <point x="79" y="175"/>
      <point x="30" y="141"/>
      <point x="30" y="93" type="curve" smooth="yes"/>
      <point x="30" y="33"/>
      <point x="97" y="-9"/>
      <point x="192" y="-9" type="curve" smooth="yes"/>
      <point x="299" y="-9"/>
      <point x="367" y="43"/>
      <point x="367" y="125" type="curve" smooth="yes"/>
      <point x="367" y="213"/>
      <point x="293" y="270"/>
      <point x="179" y="270" type="curve" smooth="yes"/>
      <point x="150" y="270"/>
      <point x="121" y="267"/>
      <point x="91" y="261" type="curve"/>
      <point x="99" y="406" type="line"/>
    </contour>
  </outline>
</glyph>
<glyph name="nine" format="1">
  <advance width="429"/>
  <unicode hex="0039"/>
  <outline>
    <contour>
      <point x="174" y="228"/>
      <point x="149" y="273"/>
      <point x="149" y="337" type="curve" smooth="yes"/>
      <point x="149" y="401"/>
      <point x="176" y="447"/>
      <point x="215" y="447" type="curve" smooth="yes"/>
      <point x="251" y="447"/>
      <point x="276" y="400"/>
      <point x="276" y="336" type="curve" smooth="yes"/>
      <point x="276" y="273"/>
      <point x="249" y="228"/>
      <point x="210" y="228" type="curve" smooth="yes"/>
    </contour>
    <contour>
      <point x="141" y="96"/>
      <point x="145" y="125"/>
      <point x="161" y="145" type="curve"/>
      <point x="93" y="144"/>
      <point x="53" y="118"/>
      <point x="53" y="77" type="curve" smooth="yes"/>
      <point x="53" y="27"/>
      <point x="107" y="-9"/>
      <point x="182" y="-9" type="curve" smooth="yes"/>
      <point x="310" y="-9"/>
      <point x="388" y="83"/>
      <point x="388" y="233" type="curve" smooth="yes"/>
      <point x="388" y="382"/>
      <point x="321" y="476"/>
      <point x="213" y="476" type="curve" smooth="yes"/>
      <point x="115" y="476"/>
      <point x="43" y="410"/>
      <point x="43" y="320" type="curve" smooth="yes"/>
      <point x="43" y="244"/>
      <point x="93" y="189"/>
      <point x="165" y="189" type="curve" smooth="yes"/>
      <point x="217" y="189"/>
      <point x="258" y="212"/>
      <point x="280" y="254" type="curve"/>
      <point x="284" y="253" type="line"/>
      <point x="285" y="233"/>
      <point x="286" y="211"/>
      <point x="286" y="197" type="curve" smooth="yes"/>
      <point x="286" y="85"/>
      <point x="254" y="15"/>
      <point x="193" y="15" type="curve" smooth="yes"/>
      <point x="162" y="15"/>
      <point x="141" y="38"/>
      <point x="141" y="74" type="curve" smooth="yes"/>
    </contour>
  </outline>
</glyph>
<glyph name="D" format="1">
  <advance width="495"/>
  <unicode hex="0044"/>
  <outline>
    <contour>
      <point x="245" y="0" type="line" smooth="yes"/>
      <point x="386" y="0"/>
      <point x="474" y="90"/>
      <point x="474" y="233" type="curve" smooth="yes"/>
      <point x="474" y="390"/>
      <point x="383" y="476"/>
      <point x="214" y="476" type="curve" smooth="yes"/>
      <point x="159" y="476"/>
      <point x="86" y="466"/>
      <point x="42" y="453" type="curve"/>
      <point x="38" y="440" type="line"/>
      <point x="50" y="433" type="line" smooth="yes"/>
      <point x="79" y="416"/>
      <point x="81" y="396"/>
      <point x="81" y="354" type="curve" smooth="yes"/>
      <point x="81" y="83" type="line" smooth="yes"/>
      <point x="81" y="39"/>
      <point x="73" y="31"/>
      <point x="26" y="18" type="curve"/>
      <point x="33" y="0" type="line"/>
    </contour>
    <contour>
      <point x="196" y="20"/>
      <point x="177" y="50"/>
      <point x="177" y="113" type="curve" smooth="yes"/>
      <point x="177" y="419" type="line" smooth="yes"/>
      <point x="177" y="439"/>
      <point x="196" y="450"/>
      <point x="231" y="450" type="curve" smooth="yes"/>
      <point x="315" y="450"/>
      <point x="371" y="363"/>
      <point x="371" y="233" type="curve" smooth="yes"/>
      <point x="371" y="92"/>
      <point x="326" y="20"/>
      <point x="236" y="20" type="curve" smooth="yes"/>
    </contour>
    <contour>
      <point x="160" y="234" type="move" name="center"/>
    </contour>
    <contour>
      <point x="248" y="0" type="move" name="bottom"/>
    </contour>
    <contour>
      <point x="237" y="467" type="move" name="top"/>
    </contour>
  </outline>
</glyph>
<glyph name="L" format="1">
  <advance width="376"/>
  <unicode hex="004C"/>
  <outline>
    <contour>
      <point x="78" y="83" type="line" smooth="yes"/>
      <point x="78" y="39"/>
      <point x="70" y="31"/>
      <point x="23" y="18" type="curve"/>
      <point x="29" y="0" type="line"/>
      <point x="275" y="0" type="line" smooth="yes"/>
      <point x="318" y="0"/>
      <point x="335" y="-4"/>
      <point x="352" y="-17" type="curve"/>
      <point x="362" y="-8" type="line"/>
      <point x="362" y="112" type="line"/>
      <point x="342" y="119" type="line"/>
      <point x="318" y="46"/>
      <point x="300" y="25"/>
      <point x="261" y="25" type="curve" smooth="yes"/>
      <point x="223" y="25" type="line" smooth="yes"/>
      <point x="182" y="25"/>
      <point x="174" y="34"/>
      <point x="174" y="77" type="curve" smooth="yes"/>
      <point x="174" y="356" type="line" smooth="yes"/>
      <point x="174" y="416"/>
      <point x="180" y="427"/>
      <point x="224" y="451" type="curve"/>
      <point x="217" y="467" type="line"/>
      <point x="43" y="467" type="line"/>
      <point x="34" y="454" type="line"/>
      <point x="72" y="422"/>
      <point x="78" y="407"/>
      <point x="78" y="338" type="curve" smooth="yes"/>
    </contour>
    <contour>
      <point x="188" y="0" type="move" name="bottom"/>
    </contour>
    <contour>
      <point x="130" y="467" type="move" name="top"/>
    </contour>
    <contour>
      <point x="224" y="325" type="move" name="topright"/>
    </contour>
    <contour>
      <point x="130" y="228" type="move" name="center"/>
    </contour>
  </outline>
</glyph>
<glyph name="T" format="1">
  <advance width="402"/>
  <unicode hex="0054"/>
  <outline>
    <contour>
      <point x="248" y="400" type="line" smooth="yes"/>
      <point x="248" y="433"/>
      <point x="252" y="442"/>
      <point x="270" y="442" type="curve" smooth="yes"/>
      <point x="283" y="442" type="line" smooth="yes"/>
      <point x="329" y="442"/>
      <point x="344" y="417"/>
      <point x="368" y="348" type="curve"/>
      <point x="389" y="355" type="line"/>
      <point x="389" y="480" type="line"/>
      <point x="378" y="489" type="line"/>
      <point x="366" y="480" type="line" smooth="yes"/>
      <point x="353" y="471"/>
      <point x="330" y="467"/>
      <point x="292" y="467" type="curve" smooth="yes"/>
      <point x="109" y="467" type="line" smooth="yes"/>
      <point x="71" y="467"/>
      <point x="48" y="471"/>
      <point x="35" y="480" type="curve" smooth="yes"/>
      <point x="23" y="489" type="line"/>
      <point x="13" y="480" type="line"/>
      <point x="13" y="355" type="line"/>
      <point x="33" y="348" type="line"/>
      <point x="55" y="413"/>
      <point x="71" y="442"/>
      <point x="119" y="442" type="curve" smooth="yes"/>
      <point x="130" y="442" type="line" smooth="yes"/>
      <point x="148" y="442"/>
      <point x="152" y="432"/>
      <point x="152" y="400" type="curve" smooth="yes"/>
      <point x="152" y="131" type="line"/>
      <point x="153" y="78"/>
      <point x="145" y="52"/>
      <point x="123" y="22" type="curve" smooth="yes"/>
      <point x="115" y="10" type="line"/>
      <point x="123" y="0" type="line"/>
      <point x="297" y="0" type="line"/>
      <point x="304" y="18" type="line"/>
      <point x="258" y="31"/>
      <point x="248" y="37"/>
      <point x="248" y="83" type="curve" smooth="yes"/>
    </contour>
    <contour>
      <point x="201" y="228" type="move" name="center"/>
    </contour>
    <contour>
      <point x="201" y="0" type="move" name="bottom"/>
    </contour>
    <contour>
      <point x="201" y="467" type="move" name="top"/>
    </contour>
  </outline>
</glyph>
<glyph name="n" format="1">
  <advance width="441"/>
  <unicode hex="006E"/>
  <outline>
    <contour>
      <point x="371" y="215" type="line"/>
      <point x="371" y="296"/>
      <point x="346" y="332"/>
      <point x="289" y="332" type="curve" smooth="yes"/>
      <point x="236" y="332"/>
      <point x="182" y="284"/>
      <point x="163" y="222" type="curve"/>
      <point x="163" y="308" type="line" smooth="yes"/>
      <point x="163" y="321"/>
      <point x="152" y="330"/>
      <point x="135" y="330" type="curve" smooth="yes"/>
      <point x="95" y="330"/>
      <point x="51" y="314"/>
      <point x="25" y="291" type="curve"/>
      <point x="28" y="280" type="line"/>
      <point x="60" y="280" type="line" smooth="yes"/>
      <point x="68" y="280"/>
      <point x="73" y="273"/>
      <point x="73" y="261" type="curve" smooth="yes"/>
      <point x="73" y="66" type="line" smooth="yes"/>
      <point x="73" y="33"/>
      <point x="69" y="25"/>
      <point x="47" y="20" type="curve" smooth="yes"/>
      <point x="33" y="17" type="line"/>
      <point x="39" y="0" type="line"/>
      <point x="184" y="0" type="line"/>
      <point x="192" y="10" type="line"/>
      <point x="184" y="20" type="line" smooth="yes"/>
      <point x="169" y="42"/>
      <point x="163" y="63"/>
      <point x="163" y="104" type="curve" smooth="yes"/>
      <point x="163" y="209"/>
      <point x="196" y="281"/>
      <point x="244" y="281" type="curve" smooth="yes"/>
      <point x="268" y="281"/>
      <point x="281" y="261"/>
      <point x="281" y="223" type="curve" smooth="yes"/>
      <point x="281" y="70" type="line" smooth="yes"/>
      <point x="281" y="14"/>
      <point x="300" y="-9"/>
      <point x="348" y="-9" type="curve" smooth="yes"/>
      <point x="382" y="-9"/>
      <point x="410" y="4"/>
      <point x="435" y="32" type="curve"/>
      <point x="427" y="42" type="line"/>
      <point x="416" y="33"/>
      <point x="402" y="27"/>
      <point x="390" y="27" type="curve" smooth="yes"/>
      <point x="377" y="27"/>
      <point x="371" y="37"/>
      <point x="371" y="57" type="curve" smooth="yes"/>
    </contour>
    <contour>
      <point x="220" y="325" type="move" name="top"/>
    </contour>
    <contour>
      <point x="233" y="0" type="move" name="bottom"/>
    </contour>
  </outline>
</glyph>
<glyph name="bar" format="1">
  <advance width="228"/>
  <unicode hex="007C"/>
  <outline>
    <contour>
      <point x="146" y="-53" type="line"/>
      <point x="146" y="484" type="line"/>
      <point x="82" y="484" type="line"/>
      <point x="82" y="-53" type="line"/>
    </contour>
  </outline>
</glyph>
<glyph name="guillemotleft" format="1">
  <advance width="336"/>
  <unicode hex="00AB"/>
  <outline>
    <contour>
      <point x="158" y="109"/>
      <point x="115" y="149"/>
      <point x="81" y="181" type="curve"/>
      <point x="115" y="214"/>
      <point x="158" y="253"/>
      <point x="172" y="275" type="curve"/>
      <point x="151" y="310"/>
      <point x="122" y="320"/>
      <point x="100" y="323" type="curve"/>
      <point x="42" y="230"/>
      <point x="24" y="198"/>
      <point x="24" y="181" type="curve" smooth="yes"/>
      <point x="24" y="163"/>
      <point x="45" y="129"/>
      <point x="100" y="40" type="curve"/>
      <point x="122" y="43"/>
      <point x="151" y="51"/>
      <point x="172" y="88" type="curve"/>
    </contour>
    <contour>
      <point x="302" y="109"/>
      <point x="260" y="149"/>
      <point x="225" y="181" type="curve"/>
      <point x="260" y="214"/>
      <point x="302" y="253"/>
      <point x="316" y="275" type="curve"/>
      <point x="296" y="310"/>
      <point x="266" y="320"/>
      <point x="245" y="323" type="curve"/>
      <point x="187" y="230"/>
      <point x="168" y="198"/>
      <point x="168" y="181" type="curve" smooth="yes"/>
      <point x="168" y="163"/>
      <point x="190" y="129"/>
      <point x="245" y="40" type="curve"/>
      <point x="266" y="43"/>
      <point x="296" y="51"/>
      <point x="316" y="88" type="curve"/>
    </contour>
  </outline>
</glyph>
<glyph name="guillemotright" format="1">
  <advance width="336"/>
  <unicode hex="00BB"/>
  <outline>
    <contour>
      <point x="185" y="52"/>
      <point x="214" y="43"/>
      <point x="236" y="40" type="curve"/>
      <point x="292" y="131"/>
      <point x="312" y="164"/>
      <point x="312" y="181" type="curve" smooth="yes"/>
      <point x="312" y="199"/>
      <point x="291" y="233"/>
      <point x="236" y="323" type="curve"/>
      <point x="214" y="320"/>
      <point x="185" y="311"/>
      <point x="164" y="275" type="curve"/>
      <point x="178" y="254"/>
      <point x="220" y="214"/>
      <point x="255" y="181" type="curve"/>
      <point x="220" y="149"/>
      <point x="178" y="110"/>
      <point x="164" y="88" type="curve"/>
    </contour>
    <contour>
      <point x="39" y="52"/>
      <point x="69" y="43"/>
      <point x="90" y="40" type="curve"/>
      <point x="147" y="131"/>
      <point x="167" y="164"/>
      <point x="167" y="181" type="curve" smooth="yes"/>
      <point x="167" y="199"/>
      <point x="146" y="233"/>
      <point x="90" y="323" type="curve"/>
      <point x="69" y="320"/>
      <point x="39" y="311"/>
      <point x="19" y="275" type="curve"/>
      <point x="33" y="254"/>
      <point x="75" y="214"/>
      <point x="110" y="181" type="curve"/>
      <point x="75" y="149"/>
      <point x="33" y="110"/>
      <point x="19" y="88" type="curve"/>
    </contour>
  </outline>
</glyph>
<glyph name="caron" format="1">
  <advance width="243"/>
  <unicode hex="02C7"/>
  <outline>
    <contour>
      <point x="139" y="376" type="line"/>
      <point x="163" y="394"/>
      <point x="193" y="438"/>
      <point x="220" y="484" type="curve"/>
      <point x="204" y="498" type="line"/>
      <point x="123" y="444" type="line" smooth="yes"/>
      <point x="125" y="442"/>
      <point x="126" y="441"/>
      <point x="127" y="439" type="curve"/>
      <point x="40" y="498" type="line"/>
      <point x="25" y="484" type="line"/>
      <point x="50" y="438"/>
      <point x="82" y="394"/>
      <point x="105" y="376" type="curve"/>
    </contour>
  </outline>
</glyph>
<glyph name="uni0304" format="1">
  <advance width="265"/>
  <unicode hex="0304"/>
  <outline>
    <contour>
      <point x="216" y="395" type="line"/>
      <point x="229" y="407"/>
      <point x="233" y="433"/>
      <point x="233" y="452" type="curve"/>
      <point x="49" y="452" type="line"/>
      <point x="36" y="440"/>
      <point x="32" y="415"/>
      <point x="32" y="395" type="curve"/>
    </contour>
    <contour>
      <point x="133" y="452" type="move" name="top"/>
    </contour>
    <contour>
      <point x="133" y="325" type="move" name="_top"/>
    </contour>
  </outline>
</glyph>
<glyph name="uni030C" format="1">
  <advance width="243"/>
  <unicode hex="030C"/>
  <outline>
    <contour>
      <point x="139" y="376" type="line"/>
      <point x="163" y="394"/>
      <point x="193" y="438"/>
      <point x="220" y="484" type="curve"/>
      <point x="204" y="498" type="line"/>
      <point x="111" y="434" type="line"/>
      <point x="133" y="434" type="line"/>
      <point x="40" y="498" type="line"/>
      <point x="25" y="484" type="line"/>
      <point x="50" y="438"/>
      <point x="82" y="394"/>
      <point x="105" y="376" type="curve"/>
    </contour>
    <contour>
      <point x="122" y="498" type="move" name="top"/>
    </contour>
    <contour>
      <point x="122" y="325" type="move" name="_top"/>
    </contour>
  </outline>
</glyph>
<glyph name="fraction" format="1">
  <advance width="128"/>
  <unicode hex="2044"/>
  <outline>
    <contour>
      <point x="-17" y="-20" type="line"/>
      <point x="178" y="486" type="line"/>
      <point x="144" y="486" type="line"/>
      <point x="-50" y="-20" type="line"/>
    </contour>
  </outline>
</glyph>
<glyph name="minus" format="1">
  <advance width="405"/>
  <unicode hex="2212"/>
  <outline>
    <contour>
      <point x="65" y="207" type="line"/>
      <point x="340" y="207" type="line"/>
      <point x="340" y="257" type="line"/>
      <point x="65" y="257" type="line"/>
    </contour>
  </outline>
</glyph>
<glyph name="infinity" format="1">
  <advance width="547"/>
  <unicode hex="221E"/>
  <outline>
    <contour>
      <point x="88" y="270"/>
      <point x="114" y="306"/>
      <point x="157" y="306" type="curve" smooth="yes"/>
      <point x="191" y="306"/>
      <point x="222" y="285"/>
      <point x="248" y="232" type="curve"/>
      <point x="222" y="179"/>
      <point x="191" y="159"/>
      <point x="157" y="159" type="curve" smooth="yes"/>
      <point x="114" y="159"/>
      <point x="88" y="194"/>
      <point x="88" y="232" type="curve" smooth="yes"/>
    </contour>
    <contour>
      <point x="459" y="194"/>
      <point x="433" y="159"/>
      <point x="391" y="159" type="curve" smooth="yes"/>
      <point x="356" y="159"/>
      <point x="326" y="179"/>
      <point x="300" y="232" type="curve"/>
      <point x="326" y="285"/>
      <point x="356" y="306"/>
      <point x="391" y="306" type="curve" smooth="yes"/>
      <point x="433" y="306"/>
      <point x="459" y="270"/>
      <point x="459" y="232" type="curve" smooth="yes"/>
    </contour>
    <contour>
      <point x="303" y="142"/>
      <point x="341" y="112"/>
      <point x="391" y="112" type="curve" smooth="yes"/>
      <point x="440" y="112"/>
      <point x="508" y="141"/>
      <point x="508" y="232" type="curve" smooth="yes"/>
      <point x="508" y="323"/>
      <point x="440" y="352"/>
      <point x="391" y="352" type="curve" smooth="yes"/>
      <point x="341" y="352"/>
      <point x="303" y="322"/>
      <point x="274" y="274" type="curve"/>
      <point x="244" y="322"/>
      <point x="206" y="352"/>
      <point x="156" y="352" type="curve" smooth="yes"/>
      <point x="107" y="352"/>
      <point x="39" y="323"/>
      <point x="39" y="232" type="curve" smooth="yes"/>
      <point x="39" y="141"/>
      <point x="107" y="112"/>
      <point x="156" y="112" type="curve" smooth="yes"/>
      <point x="206" y="112"/>
      <point x="244" y="142"/>
      <point x="274" y="190" type="curve"/>
    </contour>
  </outline>
</glyph>
<glyph name="barra" format="1">
  <advance width="248"/>
  <outline>
    <contour>
      <point x="203" y="206" type="line"/>
      <point x="203" y="239" type="line"/>
      <point x="46" y="239" type="line"/>
      <point x="46" y="206" type="line"/>
    </contour>
  </outline>
</glyph>
<glyph name="eight.osf" format="1">
  <advance width="401"/>
  <outline>
    <contour>
      <point x="186" y="234" type="line"/>
      <point x="104" y="223"/>
      <point x="30" y="176"/>
      <point x="30" y="97" type="curve" smooth="yes"/>
      <point x="30" y="25"/>
      <point x="96" y="-11"/>
      <point x="187" y="-11" type="curve" smooth="yes"/>
      <point x="295" y="-11"/>
      <point x="370" y="37"/>
      <point x="370" y="119" type="curve" smooth="yes"/>
      <point x="370" y="259"/>
      <point x="135" y="254"/>
      <point x="135" y="377" type="curve" smooth="yes"/>
      <point x="135" y="407"/>
      <point x="160" y="439"/>
      <point x="204" y="439" type="curve" smooth="yes"/>
      <point x="248" y="439"/>
      <point x="269" y="402"/>
      <point x="269" y="360" type="curve" smooth="yes"/>
      <point x="269" y="315"/>
      <point x="246" y="266"/>
      <point x="206" y="238" type="curve"/>
      <point x="214" y="230" type="line"/>
      <point x="302" y="239"/>
      <point x="361" y="293"/>
      <point x="361" y="353" type="curve" smooth="yes"/>
      <point x="361" y="426"/>
      <point x="297" y="463"/>
      <point x="211" y="463" type="curve" smooth="yes"/>
      <point x="106" y="463"/>
      <point x="37" y="410"/>
      <point x="37" y="335" type="curve" smooth="yes"/>
      <point x="37" y="187"/>
      <point x="271" y="189"/>
      <point x="271" y="81" type="curve" smooth="yes"/>
      <point x="271" y="43"/>
      <point x="242" y="12"/>
      <point x="193" y="12" type="curve" smooth="yes"/>
      <point x="146" y="12"/>
      <point x="122" y="51"/>
      <point x="122" y="97" type="curve" smooth="yes"/>
      <point x="122" y="144"/>
      <point x="145" y="197"/>
      <point x="192" y="227" type="curve"/>
    </contour>
  </outline>
</glyph>
<glyph name="four.dnom" format="1">
  <advance width="260"/>
  <outline>
    <contour>
      <point x="19" y="63" type="line"/>
      <point x="236" y="63" type="line"/>
      <point x="243" y="68"/>
      <point x="247" y="77"/>
      <point x="247" y="90" type="curve"/>
      <point x="59" y="90" type="line"/>
      <point x="176" y="272" type="line"/>
      <point x="168" y="280" type="line"/>
      <point x="99" y="280" type="line"/>
      <point x="11" y="74" type="line"/>
    </contour>
    <contour>
      <point x="214" y="181" type="line"/>
      <point x="139" y="176" type="line"/>
      <point x="134" y="168" type="line"/>
      <point x="141" y="158"/>
      <point x="143" y="150"/>
      <point x="143" y="133" type="curve" smooth="yes"/>
      <point x="143" y="53" type="line" smooth="yes"/>
      <point x="143" y="32"/>
      <point x="138" y="24"/>
      <point x="120" y="20" type="curve" smooth="yes"/>
      <point x="102" y="16" type="line"/>
      <point x="106" y="0" type="line"/>
      <point x="231" y="0" type="line"/>
      <point x="238" y="8" type="line"/>
      <point x="232" y="16" type="line" smooth="yes"/>
      <point x="219" y="33"/>
      <point x="214" y="46"/>
      <point x="214" y="63" type="curve" smooth="yes"/>
    </contour>
  </outline>
</glyph>
<glyph name="four.osf" format="1">
  <advance width="372"/>
  <outline>
    <contour>
      <point x="66" y="34" type="line"/>
      <point x="254" y="313" type="line"/>
      <point x="241" y="323" type="line"/>
      <point x="163" y="323" type="line"/>
      <point x="10" y="16" type="line"/>
      <point x="21" y="0" type="line"/>
      <point x="350" y="0" type="line"/>
      <point x="364" y="8"/>
      <point x="368" y="22"/>
      <point x="368" y="34" type="curve"/>
    </contour>
    <contour>
      <point x="311" y="192" type="line"/>
      <point x="210" y="173" type="line"/>
      <point x="203" y="164" type="line"/>
      <point x="214" y="145"/>
      <point x="217" y="132"/>
      <point x="217" y="104" type="curve" smooth="yes"/>
      <point x="217" y="-34" type="line" smooth="yes"/>
      <point x="217" y="-75"/>
      <point x="208" y="-84"/>
      <point x="175" y="-92" type="curve" smooth="yes"/>
      <point x="145" y="-99" type="line"/>
      <point x="152" y="-117" type="line"/>
      <point x="340" y="-117" type="line"/>
      <point x="349" y="-107" type="line"/>
      <point x="338" y="-95" type="line" smooth="yes"/>
      <point x="320" y="-74"/>
      <point x="311" y="-57"/>
      <point x="311" y="-16" type="curve" smooth="yes"/>
    </contour>
  </outline>
</glyph>
<glyph name="seven.osf" format="1">
  <advance width="288"/>
  <outline>
    <contour>
      <point x="267" y="323" type="line"/>
      <point x="278" y="307" type="line"/>
      <point x="155" y="13" type="line" smooth="yes"/>
      <point x="143" y="-15"/>
      <point x="140" y="-36"/>
      <point x="140" y="-54" type="curve" smooth="yes"/>
      <point x="140" y="-69"/>
      <point x="142" y="-83"/>
      <point x="148" y="-95" type="curve" smooth="yes"/>
      <point x="155" y="-107" type="line"/>
      <point x="146" y="-117" type="line"/>
      <point x="-6" y="-117" type="line"/>
      <point x="-12" y="-99" type="line"/>
      <point x="3" y="-95" type="line" smooth="yes"/>
      <point x="37" y="-86"/>
      <point x="51" y="-68"/>
      <point x="71" y="-31" type="curve" smooth="yes"/>
      <point x="224" y="263" type="line"/>
      <point x="231" y="253" type="line"/>
      <point x="-1" y="253" type="line"/>
      <point x="-18" y="269"/>
      <point x="-23" y="300"/>
      <point x="-23" y="323" type="curve"/>
    </contour>
  </outline>
</glyph>
<glyph name="two.osf" format="1">
  <advance width="360"/>
  <outline>
    <contour>
      <point x="121" y="288"/>
      <point x="147" y="310"/>
      <point x="176" y="310" type="curve" smooth="yes"/>
      <point x="203" y="310"/>
      <point x="228" y="288"/>
      <point x="228" y="242" type="curve" smooth="yes"/>
      <point x="228" y="190"/>
      <point x="209" y="136"/>
      <point x="18" y="30" type="curve"/>
      <point x="35" y="0" type="line"/>
      <point x="324" y="0" type="line"/>
      <point x="341" y="14"/>
      <point x="346" y="51"/>
      <point x="346" y="70" type="curve"/>
      <point x="135" y="70" type="line"/>
      <point x="269" y="123"/>
      <point x="329" y="180"/>
      <point x="329" y="234" type="curve" smooth="yes"/>
      <point x="329" y="296"/>
      <point x="267" y="332"/>
      <point x="176" y="332" type="curve" smooth="yes"/>
      <point x="97" y="332"/>
      <point x="28" y="301"/>
      <point x="28" y="244" type="curve" smooth="yes"/>
      <point x="28" y="194"/>
      <point x="77" y="168"/>
      <point x="142" y="167" type="curve"/>
      <point x="144" y="175" type="line"/>
      <point x="128" y="191"/>
      <point x="121" y="217"/>
      <point x="121" y="244" type="curve" smooth="yes"/>
    </contour>
  </outline>
</glyph>
